<svg xmlns="http://www.w3.org/2000/svg" width="40" height="41" viewBox="0 0 40 41">
    <path fill="#FEC60D" fill-rule="nonzero" d="M20 .408c-11.048 0-20 8.952-20 20 0 11.049 8.952 20 20 20s20-8.951 20-20c0-11.048-8.952-20-20-20zm0 36.13c-8.911 0-16.129-7.219-16.129-16.13C3.871 11.497 11.089 4.28 20 4.28c8.911 0 16.129 7.218 16.129 16.13 0 8.91-7.218 16.128-16.129 16.128zm4.984-8.42l-6.847-4.976a.974.974 0 0 1-.395-.782V9.118a.97.97 0 0 1 .968-.968h2.58a.97.97 0 0 1 .968.968v11.427l5.387 3.92c.436.314.524.919.21 1.354l-1.516 2.09a.974.974 0 0 1-1.355.209z"/>
</svg>
