<?xml version="1.0" encoding="utf-8"?>
<!-- Generator: Adobe Illustrator 22.1.0, SVG Export Plug-In . SVG Version: 6.00 Build 0)  -->
<svg version="1.1" id="Capa_1" xmlns="http://www.w3.org/2000/svg" xmlns:xlink="http://www.w3.org/1999/xlink" x="0px" y="0px"
	 viewBox="0 0 65 63" style="enable-background:new 0 0 65 63;" xml:space="preserve">
<style type="text/css">
	.st0{fill:#D60026;}
</style>
<path class="st0" d="M32.5,0C14.5,0,0,14.1,0,31.5c0,6.1,1.8,11.9,5,16.7L0.5,62.5l15.8-3.7C21,61.5,26.6,63,32.5,63
	C50.5,63,65,48.9,65,31.5C65,14.1,50.5,0,32.5,0z M32.5,60c-4.6,0-9-1-12.9-2.9c-0.9-0.4-1.8-0.9-2.6-1.4l-4.2,0.8l-5.3,1l3.1-2.7
	l2.3-2l9.6-8.3l1,10l6-16l15.8,18.7C41.4,59,37.1,60,32.5,60z M54.8,50.1L33,33V22.5h14.5L43.2,18l5.8-5.4H33v-0.5
	c0.5-0.3,0.8-0.9,0.8-1.5c0-1-0.8-1.8-1.8-1.8s-1.8,0.8-1.8,1.8c0,0.6,0.3,1.2,0.8,1.5V33L9,48l-0.5,0C5,43.4,3,37.7,3,31.5
	C3,15.8,16.2,3,32.5,3S62,15.8,62,31.5C62,38.6,59.3,45.1,54.8,50.1z M33,21v-6.9h12.3L41.1,18l2.9,3H33z"/>
</svg>
